<?xml version="1.0" standalone="no"?>
<!DOCTYPE svg PUBLIC "-//W3C//DTD SVG 20010904//EN"
 "http://www.w3.org/TR/2001/REC-SVG-20010904/DTD/svg10.dtd">
<svg version="1.0" xmlns="http://www.w3.org/2000/svg"
 width="340.000000pt" height="427.000000pt" viewBox="0 0 340.000000 427.000000"
 preserveAspectRatio="xMidYMid meet">

<g transform="translate(0.000000,427.000000) scale(0.100000,-0.100000)"
fill="#000000" stroke="none">
<path d="M1095 4256 c-293 -48 -543 -178 -742 -389 -183 -194 -295 -422 -338
-687 -22 -142 -22 -1948 0 -2090 55 -338 236 -637 510 -842 85 -64 260 -154
362 -187 174 -55 183 -56 813 -56 530 0 593 2 668 18 125 28 195 52 317 112
310 151 559 443 659 775 49 163 56 244 56 653 0 352 -1 377 -17 377 -30 0
-121 -27 -167 -49 -59 -29 -141 -118 -173 -188 -25 -56 -26 -67 -33 -318 -7
-240 -10 -267 -34 -348 -84 -281 -295 -505 -566 -599 -132 -46 -164 -48 -710
-48 -546 0 -578 2 -710 48 -307 107 -540 387 -590 710 -7 44 -10 398 -8 1032
4 956 4 966 25 1035 100 324 322 545 643 638 73 21 89 22 640 22 557 0 566 0
643 -23 225 -65 400 -193 525 -385 106 -163 142 -307 142 -573 l0 -174 -154 0
-154 0 -5 193 c-3 135 -10 206 -21 240 -47 145 -165 287 -291 349 -129 64
-119 63 -685 63 -566 0 -556 1 -685 -63 -132 -65 -254 -218 -296 -367 -9 -33
-14 -103 -14 -210 1 -135 4 -172 23 -238 53 -184 159 -333 312 -437 34 -23
139 -79 233 -125 95 -45 297 -144 451 -219 153 -75 280 -136 282 -136 2 0 28
-15 57 -34 146 -94 247 -275 247 -442 0 -70 -26 -122 -83 -168 l-39 -31 -488
0 -488 0 -39 31 c-73 60 -77 74 -83 304 -5 182 -8 211 -29 263 -30 75 -115
168 -184 200 -45 21 -137 47 -168 47 -7 0 -9 -130 -6 -387 3 -326 6 -396 20
-436 56 -162 164 -290 302 -357 123 -59 137 -60 675 -60 541 0 550 1 680 62
84 40 212 167 253 252 56 114 62 148 62 326 0 142 -4 176 -23 245 -33 113 -95
224 -174 310 -120 130 -69 102 -1028 567 -132 64 -152 78 -220 147 -80 81
-118 145 -144 247 -40 155 -3 263 106 309 56 23 920 23 976 0 47 -20 79 -50
103 -97 18 -34 19 -63 19 -388 l0 -350 545 0 545 0 0 371 c0 423 -9 515 -67
688 -127 385 -426 683 -813 814 -176 60 -177 60 -785 63 -420 2 -580 -1 -640
-10z"/>
</g>
</svg>
